<?xml version="1.0" encoding="UTF-8"?> <svg xmlns="http://www.w3.org/2000/svg" width="104" height="104" viewBox="0 0 104 104" fill="none"> <path d="M47.2449 2.12543C34.7088 3.4171 23.5613 9.0339 14.9952 18.3496C2.90895 31.4815 -1.13938 50.5239 4.51263 67.6678C7.07461 75.4374 11.1229 81.9349 17.0487 87.767C24.9107 95.4974 34.4546 100.136 45.8759 101.76C48.2032 102.093 55.8892 102.073 58.2947 101.74C69.7552 100.155 79.6315 95.2626 87.5717 87.219C95.4728 79.2146 100.108 69.7228 101.751 58.176C102.083 55.8667 102.083 48.1558 101.751 45.8465C100.812 39.2511 98.8953 33.3016 95.9813 28.0371C93.6931 23.8685 91.0333 20.3066 87.5717 16.8035C79.788 8.91647 70.1072 4.02379 58.9792 2.37985C56.5737 2.02758 49.6309 1.87101 47.2449 2.12543ZM75.4072 32.3231C76.2677 32.6949 76.6784 33.5169 76.6784 34.8868C76.6784 36.1394 68.4057 75.4374 67.9755 76.2985C67.3497 77.5119 66.0002 77.962 64.6312 77.4532C64.1618 77.2771 59.6442 74.0087 53.0338 69.0965L51.391 67.8831L47.8512 71.2688C45.2501 73.7348 44.1158 74.7133 43.6464 74.8111C43.2944 74.8894 42.9619 74.909 42.9228 74.8503C42.8641 74.7916 43.001 71.9538 43.2357 68.5094L43.6464 62.2859L45.035 61.0138C45.7782 60.3092 51.0781 55.5144 56.7888 50.3477C62.5191 45.1615 67.1932 40.8168 67.1932 40.6602C67.1932 40.4449 66.9781 40.3666 66.5087 40.3862C65.9415 40.4058 63.0471 42.1476 51.3128 49.5258C43.3531 54.5554 36.7232 58.6653 36.6059 58.6653C36.0778 58.6653 23.7373 54.6924 23.1506 54.3402C21.8989 53.5573 22.1727 52.4027 23.796 51.4828C24.2262 51.248 27.3358 49.9759 30.7192 48.6842C34.1026 47.373 40.4977 44.9071 44.8981 43.2044C49.318 41.5018 57.18 38.4683 62.4017 36.4525C73.8426 32.0295 73.7253 32.0687 74.2924 32.0491C74.5271 32.0491 75.0356 32.1665 75.4072 32.3231Z" stroke="white" stroke-width="4"></path> </svg> 