<?xml version="1.0" encoding="UTF-8"?> <svg xmlns="http://www.w3.org/2000/svg" width="104" height="104" viewBox="0 0 104 104" fill="none"> <path d="M47.2481 2.12544C31.6032 3.74977 17.8945 12.2628 9.56362 25.5315C-2.24821 44.319 -0.0383788 69.1732 14.8829 85.5144C23.1551 94.5755 33.4806 99.9964 45.8791 101.758C48.1867 102.09 55.8723 102.071 58.2972 101.758C69.6201 100.192 79.7501 95.1626 87.4552 87.2953C89.9975 84.712 90.5255 84.1054 92.2073 81.8744C97.2137 75.2009 100.48 67.0596 101.751 58.1747C102.083 55.8654 102.083 48.1547 101.751 45.8455C100.91 39.9157 99.3648 34.8665 96.9203 29.9152C94.2998 24.6704 91.6402 20.9325 87.4748 16.7249C79.7501 8.89676 70.0895 4.02375 58.9817 2.37985C56.5763 2.02759 49.6339 1.87102 47.2481 2.12544ZM62.8929 30.2871C74.9394 30.7176 77.5012 31.1873 79.7697 33.3009C81.6471 35.0622 82.4293 37.3911 82.9573 42.9099C83.2898 46.3151 83.3093 57.1962 82.9769 60.7189C82.4684 66.042 81.9795 68.0577 80.8062 69.6234C79.183 71.7761 77.5794 72.598 73.9811 73.0482C64.34 74.2615 36.3749 74.1441 28.9241 72.8525C25.0911 72.1871 22.6662 69.9169 21.8644 66.1986C20.9257 61.9322 20.515 52.9495 20.9452 46.0412C21.4341 37.9978 22.0208 35.708 24.0937 33.5162C25.8733 31.6374 27.5552 31.109 33.1677 30.6785C40.0514 30.1305 53.8189 29.9544 62.8929 30.2871Z" stroke="white" stroke-width="4"></path> <path d="M45.7814 52.0101V61.4038L46.7201 60.8754C58.747 53.9867 61.9933 52.0884 61.9933 52.0101C61.9933 51.9318 58.747 50.0335 46.7201 43.1447L45.7814 42.6163V52.0101Z" stroke="white" stroke-width="4"></path> </svg> 