<?xml version="1.0" encoding="UTF-8"?> <svg xmlns="http://www.w3.org/2000/svg" width="102" height="102" viewBox="0 0 102 102" fill="none"> <path d="M46.2449 1.12543C33.7088 2.4171 22.5613 8.0339 13.9952 17.3496C1.90895 30.4815 -2.13938 49.5239 3.51263 66.6678C6.07461 74.4374 10.1229 80.9349 16.0487 86.767C23.9107 94.4974 33.4546 99.1357 44.8759 100.76C47.2032 101.093 54.8892 101.073 57.2947 100.74C68.7552 99.1552 78.6315 94.2626 86.5717 86.219C94.4728 78.2146 99.1078 68.7228 100.751 57.176C101.083 54.8667 101.083 47.1558 100.751 44.8465C99.8119 38.2511 97.8953 32.3016 94.9813 27.0371C92.6931 22.8685 90.0333 19.3066 86.5717 15.8035C78.788 7.91647 69.1072 3.02379 57.9792 1.37985C55.5737 1.02758 48.6309 0.871011 46.2449 1.12543ZM74.4072 31.3231C75.2677 31.6949 75.6784 32.5169 75.6784 33.8868C75.6784 35.1394 67.4057 74.4374 66.9755 75.2985C66.3497 76.5119 65.0002 76.962 63.6312 76.4532C63.1618 76.2771 58.6442 73.0087 52.0338 68.0965L50.391 66.8831L46.8512 70.2688C44.2501 72.7348 43.1158 73.7133 42.6464 73.8111C42.2944 73.8894 41.9619 73.909 41.9228 73.8503C41.8641 73.7916 42.001 70.9538 42.2357 67.5094L42.6464 61.2859L44.035 60.0138C44.7782 59.3092 50.0781 54.5144 55.7888 49.3477C61.5191 44.1615 66.1932 39.8168 66.1932 39.6602C66.1932 39.4449 65.9781 39.3666 65.5087 39.3862C64.9415 39.4058 62.0471 41.1476 50.3128 48.5258C42.3531 53.5554 35.7232 57.6653 35.6059 57.6653C35.0778 57.6653 22.7373 53.6924 22.1506 53.3402C20.8989 52.5573 21.1727 51.4027 22.796 50.4828C23.2262 50.248 26.3358 48.9759 29.7192 47.6842C33.1026 46.373 39.4977 43.9071 43.8981 42.2044C48.318 40.5018 56.18 37.4683 61.4017 35.4525C72.8426 31.0295 72.7253 31.0687 73.2924 31.0491C73.5271 31.0491 74.0356 31.1665 74.4072 31.3231Z" stroke="white" stroke-width="2"></path> </svg> 