<?xml version="1.0" encoding="UTF-8"?> <svg xmlns="http://www.w3.org/2000/svg" width="102" height="102" viewBox="0 0 102 102" fill="none"> <path d="M46.2481 1.12544C30.6032 2.74977 16.8945 11.2628 8.56362 24.5315C-3.24821 43.319 -1.03838 68.1732 13.8829 84.5144C22.1551 93.5755 32.4806 98.9964 44.8791 100.758C47.1867 101.09 54.8723 101.071 57.2972 100.758C68.6201 99.1921 78.7501 94.1626 86.4552 86.2953C88.9975 83.712 89.5255 83.1054 91.2073 80.8744C96.2137 74.2009 99.4795 66.0596 100.751 57.1747C101.083 54.8654 101.083 47.1547 100.751 44.8455C99.9098 38.9157 98.3648 33.8665 95.9203 28.9152C93.2998 23.6704 90.6402 19.9325 86.4748 15.7249C78.7501 7.89676 69.0895 3.02375 57.9817 1.37985C55.5763 1.02759 48.6339 0.871023 46.2481 1.12544ZM61.8929 29.2871C73.9394 29.7176 76.5012 30.1873 78.7697 32.3009C80.6471 34.0622 81.4293 36.3911 81.9573 41.9099C82.2898 45.3151 82.3093 56.1962 81.9769 59.7189C81.4684 65.042 80.9795 67.0577 79.8062 68.6234C78.183 70.7761 76.5794 71.598 72.9811 72.0482C63.34 73.2615 35.3749 73.1441 27.9241 71.8525C24.0911 71.1871 21.6662 68.9169 20.8644 65.1986C19.9257 60.9322 19.515 51.9495 19.9452 45.0412C20.4341 36.9978 21.0208 34.708 23.0937 32.5162C24.8733 30.6374 26.5552 30.109 32.1677 29.6785C39.0514 29.1305 52.8189 28.9544 61.8929 29.2871Z" stroke="white" stroke-width="2"></path> <path d="M44.7814 51.0101V60.4038L45.7201 59.8754C57.747 52.9867 60.9933 51.0884 60.9933 51.0101C60.9933 50.9318 57.747 49.0335 45.7201 42.1447L44.7814 41.6163V51.0101Z" stroke="white" stroke-width="2"></path> </svg> 