<?xml version="1.0" encoding="UTF-8"?> <svg xmlns="http://www.w3.org/2000/svg" width="102" height="102" viewBox="0 0 102 102" fill="none"> <path d="M47.3873 1.02933C39.8291 1.75282 34.131 3.39532 27.9434 6.58256C18.5054 11.471 10.8884 19.2338 6.16938 28.7759C4.34835 32.4325 3.50636 34.6811 2.5469 38.279C1.37204 42.8154 1.01958 45.5725 1 50.5782C1 53.0811 1.0979 55.7795 1.23497 56.8354C2.31192 64.8524 4.81829 71.7548 9.0282 78.2075L10.438 80.378L7.32465 89.5486C5.60153 94.613 4.23086 98.7584 4.27002 98.7975C4.30918 98.8366 8.57783 97.507 13.7864 95.8449C18.9949 94.1829 23.3223 92.8141 23.4202 92.8141C23.4985 92.8141 24.3013 93.2638 25.2021 93.8309C26.1028 94.3784 27.9826 95.3952 29.3728 96.06C42.0417 102.102 56.512 102.63 69.4746 97.4874C84.1604 91.68 95.439 78.9506 99.4727 63.6596C100.706 58.9668 101 56.4052 101 50.9693C101 45.5334 100.706 42.9719 99.4727 38.279C94.7341 20.3483 80.3421 6.40658 62.1709 2.16344C59.1163 1.45951 55.9442 1.08799 52.0867 1.02933C49.9328 0.990225 47.8181 0.990225 47.3873 1.02933ZM35.4429 24.2199C35.7758 24.3959 36.2262 24.8652 36.4611 25.2954C37.029 26.3317 41.8067 37.7706 41.9438 38.4745C42.12 39.3545 41.2389 40.8601 39.3004 43.0501C37.264 45.3379 36.8332 46.0614 37.0094 46.8826C37.3423 48.3687 41.8655 54.3716 44.6656 57.0114C48.9929 61.0981 55.533 64.9893 58.4506 65.2044C59.9583 65.3021 60.487 64.8915 62.7975 61.8411C63.8353 60.4528 64.9319 59.0645 65.2647 58.7517C66.0088 57.9891 67.1249 57.8326 68.3977 58.3019C70.0033 58.9081 79.8526 63.6987 80.5575 64.2267L81.2232 64.7155L81.1057 66.7882C80.8316 72.1068 78.9518 74.8639 74.0174 77.269C69.318 79.5567 65.6368 79.4981 58.4506 77.0148C48.7776 73.6711 43.6669 70.4838 36.7157 63.5032C33.2303 60.0226 30.7631 57.07 27.9434 53.0224C23.2831 46.3742 21.5013 41.2316 22.03 36.0108C22.4607 31.8263 23.9293 28.7368 26.886 25.7842C28.3154 24.3568 30.1756 23.7702 32.9953 23.868C34.1897 23.9071 35.0709 24.0244 35.4429 24.2199Z" stroke="white" stroke-width="2"></path> </svg> 