<?xml version="1.0" encoding="UTF-8"?> <svg xmlns="http://www.w3.org/2000/svg" width="104" height="104" viewBox="0 0 104 104" fill="none"> <path d="M48.3873 2.02933C40.8291 2.75282 35.131 4.39532 28.9434 7.58256C19.5054 12.471 11.8884 20.2338 7.16938 29.7759C5.34835 33.4325 4.50636 35.6811 3.5469 39.279C2.37204 43.8154 2.01958 46.5725 2 51.5782C2 54.0811 2.0979 56.7795 2.23497 57.8354C3.31192 65.8524 5.81829 72.7548 10.0282 79.2075L11.438 81.378L8.32465 90.5486C6.60153 95.613 5.23086 99.7584 5.27002 99.7975C5.30918 99.8366 9.57783 98.507 14.7864 96.8449C19.9949 95.1829 24.3223 93.8141 24.4202 93.8141C24.4985 93.8141 25.3013 94.2638 26.2021 94.8309C27.1028 95.3784 28.9826 96.3952 30.3728 97.06C43.0417 103.102 57.512 103.63 70.4746 98.4874C85.1604 92.68 96.439 79.9506 100.473 64.6596C101.706 59.9668 102 57.4052 102 51.9693C102 46.5334 101.706 43.9719 100.473 39.279C95.7341 21.3483 81.3421 7.40658 63.1709 3.16344C60.1163 2.45951 56.9442 2.08799 53.0867 2.02933C50.9328 1.99023 48.8181 1.99023 48.3873 2.02933ZM36.4429 25.2199C36.7758 25.3959 37.2262 25.8652 37.4611 26.2954C38.029 27.3317 42.8067 38.7706 42.9438 39.4745C43.12 40.3545 42.2389 41.8601 40.3004 44.0501C38.264 46.3379 37.8332 47.0614 38.0094 47.8826C38.3423 49.3687 42.8655 55.3716 45.6656 58.0114C49.9929 62.0981 56.533 65.9893 59.4506 66.2044C60.9583 66.3021 61.487 65.8915 63.7975 62.8411C64.8353 61.4528 65.9319 60.0645 66.2647 59.7517C67.0088 58.9891 68.1249 58.8326 69.3977 59.3019C71.0033 59.9081 80.8526 64.6987 81.5575 65.2267L82.2232 65.7155L82.1057 67.7882C81.8316 73.1068 79.9518 75.8639 75.0174 78.269C70.318 80.5567 66.6368 80.4981 59.4506 78.0148C49.7776 74.6711 44.6669 71.4838 37.7157 64.5032C34.2303 61.0226 31.7631 58.07 28.9434 54.0224C24.2831 47.3742 22.5013 42.2316 23.03 37.0108C23.4607 32.8263 24.9293 29.7368 27.886 26.7842C29.3154 25.3568 31.1756 24.7702 33.9953 24.868C35.1897 24.9071 36.0709 25.0244 36.4429 25.2199Z" stroke="white" stroke-width="4"></path> </svg> 