<?xml version="1.0" encoding="UTF-8"?> <svg xmlns="http://www.w3.org/2000/svg" width="102" height="102" viewBox="0 0 102 102" fill="none"> <path d="M47.2914 1.07017C46.9706 1.11024 45.828 1.25046 44.7856 1.37064C36.0656 2.35218 27.3656 5.99791 19.9285 11.7469C17.7234 13.4496 13.3734 17.7964 11.6695 19.9999C6.11676 27.1511 2.74902 35.0635 1.34579 44.1578C0.884735 47.1625 0.884735 54.8946 1.34579 57.8994C3.59095 72.4622 11.2285 84.6213 23.1359 92.5938C29.7511 97.0208 36.5467 99.5648 44.8858 100.747C47.5921 101.127 54.969 101.067 57.9158 100.646C65.393 99.5447 72.5694 96.8004 78.6635 92.734C91.0319 84.4611 98.6293 72.2018 100.754 57.1382C101.095 54.7544 101.075 47.2627 100.734 44.8188C98.9701 32.0989 92.836 20.8011 83.3743 12.8286C76.2178 6.77913 67.2973 2.77285 58.016 1.45077C55.851 1.13027 48.6545 0.869858 47.2914 1.07017ZM65.7538 20.6008C68.5602 20.9013 70.4847 21.4421 72.7499 22.5639C76.7992 24.5671 79.2849 27.4516 80.7883 31.8585C81.8307 34.9233 81.8708 35.5242 81.8708 51.0286C81.8708 62.767 81.8107 65.7116 81.5701 67.0738C80.1068 75.4469 74.5741 80.4748 65.7337 81.4764C63.3282 81.7368 38.6315 81.7368 36.266 81.4764C29.7912 80.7352 24.92 77.7505 22.4142 73.0031C21.4921 71.2403 20.7905 69.157 20.4296 67.0738C19.9886 64.6099 19.9886 37.4473 20.4296 34.9834C20.9909 31.7183 22.314 28.6935 24.1181 26.4901C26.664 23.3852 31.1543 21.1617 35.9653 20.6008C38.2105 20.3404 63.4485 20.3404 65.7538 20.6008Z" stroke="white" stroke-width="2"></path> <path d="M43.2821 26.2096C35.1033 26.3498 34.5821 26.4099 31.8358 27.712C29.2699 28.9138 27.125 31.7383 26.2229 35.1036C25.8621 36.4056 25.842 37.4472 25.842 51.0286C25.842 64.6099 25.8621 65.6515 26.2229 66.9535C27.125 70.3188 29.2699 73.1433 31.8358 74.3451C34.5821 75.6472 35.0833 75.7073 43.4425 75.8475C47.592 75.9076 54.4077 75.9076 58.5773 75.8475C66.9164 75.7073 67.4176 75.6472 70.1639 74.3451C72.7298 73.1433 74.8747 70.3188 75.7768 66.9535C76.1376 65.6515 76.1577 64.6099 76.1577 51.0286C76.1577 37.4472 76.1376 36.4056 75.7768 35.1036C74.8747 31.7383 72.7298 28.9138 70.1639 27.712C67.6381 26.5101 66.6558 26.3498 61.3236 26.2697C58.6775 26.2296 55.2095 26.1695 53.6058 26.1295C52.0022 26.1094 47.3715 26.1495 43.2821 26.2096ZM68.7206 31.8785C69.0814 32.0387 69.6427 32.4995 69.9634 32.9201C70.4445 33.5411 70.5448 33.8616 70.5448 34.8231C70.5448 35.6845 70.4445 36.1252 70.1238 36.5458C68.6203 38.569 65.7738 38.5289 64.571 36.4457C64.0699 35.5843 64.0699 34.0419 64.551 33.2006C65.3528 31.8384 67.2171 31.2575 68.7206 31.8785ZM54.7485 35.2037C62.1655 36.9665 67.2372 43.4166 67.2372 51.0286C67.2372 60.1228 60.1008 67.254 50.9998 67.254C41.919 67.254 34.7625 60.1028 34.7625 51.0286C34.7625 43.4567 39.7941 37.0266 47.151 35.2037C49.2959 34.6829 52.5835 34.6829 54.7485 35.2037Z" stroke="white" stroke-width="2"></path> <path d="M47.7925 41.0731C44.3245 42.2549 41.919 44.7589 40.8967 48.2043C40.7163 48.8453 40.5759 50.0271 40.5759 51.0287C40.5759 53.9533 41.6183 56.4773 43.6029 58.4404C45.6275 60.4435 48.0932 61.4451 50.9999 61.4451C53.9266 61.4451 56.4524 60.4034 58.4169 58.4203C60.4215 56.3971 61.4238 53.9333 61.4238 51.0287C61.4238 46.2412 58.437 42.295 53.8264 40.9329C52.1826 40.4521 49.4162 40.5122 47.7925 41.0731Z" stroke="white" stroke-width="2"></path> </svg> 